<svg width="280" height="90" viewBox="0 0 280 90" fill="none" xmlns="http://www.w3.org/2000/svg">
<rect opacity="0.12" x="94.5" width="90" height="90" rx="45" fill="#6C84BD"/>
<path d="M123.75 42.75C123.75 38.5728 125.409 34.5668 128.363 31.6131C131.317 28.6594 135.323 27 139.5 27C143.677 27 147.683 28.6594 150.637 31.6131C153.59 34.5668 155.25 38.5728 155.25 42.75V58.5C155.356 59.3491 155.188 60.21 154.769 60.9565C154.351 61.7029 153.704 62.2957 152.924 62.6479C152.144 63.0002 151.272 63.0933 150.435 62.9137C149.599 62.7341 148.842 62.2913 148.275 61.65C147.928 61.2058 147.484 60.8464 146.977 60.5993C146.47 60.3522 145.914 60.2238 145.35 60.2238C144.786 60.2238 144.23 60.3522 143.723 60.5993C143.216 60.8464 142.772 61.2058 142.425 61.65C142.078 62.0942 141.634 62.4536 141.127 62.7007C140.62 62.9478 140.064 63.0762 139.5 63.0762C138.936 63.0762 138.38 62.9478 137.873 62.7007C137.366 62.4536 136.922 62.0942 136.575 61.65C136.228 61.2058 135.784 60.8464 135.277 60.5993C134.77 60.3522 134.214 60.2238 133.65 60.2238C133.086 60.2238 132.53 60.3522 132.023 60.5993C131.516 60.8464 131.072 61.2058 130.725 61.65C130.158 62.2913 129.401 62.7341 128.564 62.9137C127.728 63.0933 126.855 63.0002 126.075 62.6479C125.295 62.2957 124.649 61.7029 124.23 60.9565C123.812 60.21 123.643 59.3491 123.75 58.5V42.75" stroke="#6C84BD" stroke-width="2.75" stroke-linecap="round" stroke-linejoin="round"/>
<path d="M135 40.5H135.022" stroke="#6C84BD" stroke-width="2.75" stroke-linecap="round" stroke-linejoin="round"/>
<path d="M144 40.5H144.023" stroke="#6C84BD" stroke-width="2.75" stroke-linecap="round" stroke-linejoin="round"/>
<path d="M144 50.9121C142.68 49.9926 141.109 49.4997 139.5 49.4997C137.891 49.4997 136.32 49.9926 135 50.9121" stroke="#6C84BD" stroke-width="2.75" stroke-linecap="round" stroke-linejoin="round"/>
<path opacity="0.12" fill-rule="evenodd" clip-rule="evenodd" d="M56.6281 0.543313C59.4668 1.68662 61.3261 4.43996 61.3261 7.50025V48.1821H74.5002C78.6423 48.1821 82.0002 51.5399 82.0002 55.6821C82.0002 59.8242 78.6423 63.1821 74.5002 63.1821H61.3261V82.5003C61.3261 86.6424 57.9683 90.0003 53.8261 90.0003C49.684 90.0003 46.3261 86.6424 46.3261 82.5003V63.1821H7.50019C4.4935 63.1821 1.77743 61.3865 0.599602 58.6201C-0.578222 55.8537 0.00989056 52.6513 2.09379 50.4839L48.4197 2.3021C50.5408 0.0960772 53.7894 -0.599995 56.6281 0.543313ZM46.3261 48.1821V26.1219L25.1156 48.1821H46.3261Z" fill="#6C84BD"/>
<path opacity="0.12" fill-rule="evenodd" clip-rule="evenodd" d="M254.128 0.543313C256.967 1.68662 258.826 4.43996 258.826 7.50025V48.1821H272C276.142 48.1821 279.5 51.5399 279.5 55.6821C279.5 59.8242 276.142 63.1821 272 63.1821H258.826V82.5003C258.826 86.6424 255.468 90.0003 251.326 90.0003C247.184 90.0003 243.826 86.6424 243.826 82.5003V63.1821H205C201.994 63.1821 199.277 61.3865 198.1 58.6201C196.922 55.8537 197.51 52.6513 199.594 50.4839L245.92 2.3021C248.041 0.0960772 251.289 -0.599995 254.128 0.543313ZM243.826 48.1821V26.1219L222.616 48.1821H243.826Z" fill="#6C84BD"/>
</svg>
