<svg width="14" height="14" viewBox="0 0 14 14" fill="none" xmlns="http://www.w3.org/2000/svg">
<path d="M1 1.75C0.585786 1.75 0.25 2.08579 0.25 2.5C0.25 2.91421 0.585786 3.25 1 3.25L1 1.75ZM13 3.25C13.4142 3.25 13.75 2.91421 13.75 2.5C13.75 2.08579 13.4142 1.75 13 1.75L13 3.25ZM1 6.25C0.585787 6.25 0.25 6.58579 0.25 7C0.25 7.41421 0.585786 7.75 1 7.75L1 6.25ZM13 7.75C13.4142 7.75 13.75 7.41421 13.75 7C13.75 6.58579 13.4142 6.25 13 6.25L13 7.75ZM1 10.75C0.585786 10.75 0.25 11.0858 0.25 11.5C0.25 11.9142 0.585786 12.25 1 12.25V10.75ZM13 12.25C13.4142 12.25 13.75 11.9142 13.75 11.5C13.75 11.0858 13.4142 10.75 13 10.75V12.25ZM9.25 2.5C9.25 2.91421 8.91421 3.25 8.5 3.25V4.75C9.74264 4.75 10.75 3.74264 10.75 2.5H9.25ZM8.5 3.25C8.08579 3.25 7.75 2.91421 7.75 2.5H6.25C6.25 3.74264 7.25736 4.75 8.5 4.75V3.25ZM7.75 2.5C7.75 2.08579 8.08579 1.75 8.5 1.75V0.25C7.25736 0.25 6.25 1.25736 6.25 2.5H7.75ZM8.5 1.75C8.91421 1.75 9.25 2.08579 9.25 2.5H10.75C10.75 1.25736 9.74264 0.25 8.5 0.25V1.75ZM1 3.25L7 3.25L7 1.75L1 1.75L1 3.25ZM10 3.25L13 3.25L13 1.75L10 1.75L10 3.25ZM4.75 7C4.75 7.41421 4.41422 7.75 4 7.75V9.25C5.24264 9.25 6.25 8.24264 6.25 7H4.75ZM4 7.75C3.58579 7.75 3.25 7.41421 3.25 7H1.75C1.75 8.24264 2.75736 9.25 4 9.25V7.75ZM3.25 7C3.25 6.58579 3.58579 6.25 4 6.25V4.75C2.75736 4.75 1.75 5.75736 1.75 7H3.25ZM4 6.25C4.41422 6.25 4.75 6.58579 4.75 7H6.25C6.25 5.75736 5.24264 4.75 4 4.75V6.25ZM1 7.75L2.5 7.75L2.5 6.25L1 6.25L1 7.75ZM5.5 7.75L13 7.75L13 6.25L5.5 6.25L5.5 7.75ZM11.5 11.5C11.5 11.9142 11.1642 12.25 10.75 12.25V13.75C11.9926 13.75 13 12.7426 13 11.5H11.5ZM10.75 12.25C10.3358 12.25 10 11.9142 10 11.5H8.5C8.5 12.7426 9.50736 13.75 10.75 13.75V12.25ZM10 11.5C10 11.0858 10.3358 10.75 10.75 10.75V9.25C9.50736 9.25 8.5 10.2574 8.5 11.5H10ZM10.75 10.75C11.1642 10.75 11.5 11.0858 11.5 11.5H13C13 10.2574 11.9926 9.25 10.75 9.25V10.75ZM1 12.25H9.25V10.75H1V12.25ZM12.25 12.25H13V10.75H12.25V12.25Z" fill="#31343E"/>
</svg>
