<svg width="19" height="19" viewBox="0 0 19 19" fill="none" xmlns="http://www.w3.org/2000/svg">
<path d="M15.5 6.5H3.5C3.08579 6.5 2.75 6.83579 2.75 7.25V8.75C2.75 9.16421 3.08579 9.5 3.5 9.5H15.5C15.9142 9.5 16.25 9.16421 16.25 8.75V7.25C16.25 6.83579 15.9142 6.5 15.5 6.5Z" stroke="white" stroke-width="1.3" stroke-linecap="round" stroke-linejoin="round"/>
<path d="M9.5 6.5V16.25" stroke="white" stroke-width="1.3" stroke-linecap="round" stroke-linejoin="round"/>
<path d="M14.75 9.5V14.75C14.75 15.1478 14.592 15.5294 14.3107 15.8107C14.0294 16.092 13.6478 16.25 13.25 16.25H5.75C5.35218 16.25 4.97064 16.092 4.68934 15.8107C4.40804 15.5294 4.25 15.1478 4.25 14.75V9.5" stroke="white" stroke-width="1.3" stroke-linecap="round" stroke-linejoin="round"/>
<path d="M6.125 6.50033C5.62772 6.50033 5.15081 6.30278 4.79917 5.95115C4.44754 5.59952 4.25 5.12261 4.25 4.62533C4.25 4.12805 4.44754 3.65113 4.79917 3.2995C5.15081 2.94787 5.62772 2.75033 6.125 2.75033C6.84851 2.73772 7.55752 3.08877 8.15955 3.7577C8.76158 4.42662 9.22871 5.38238 9.5 6.50033C9.77129 5.38238 10.2384 4.42662 10.8404 3.7577C11.4425 3.08877 12.1515 2.73772 12.875 2.75033C13.3723 2.75033 13.8492 2.94787 14.2008 3.2995C14.5525 3.65113 14.75 4.12805 14.75 4.62533C14.75 5.12261 14.5525 5.59952 14.2008 5.95115C13.8492 6.30278 13.3723 6.50033 12.875 6.50033" stroke="white" stroke-width="1.3" stroke-linecap="round" stroke-linejoin="round"/>
</svg>
