<svg>
	<symbol id="menu__about" width="24" height="24" viewBox="0 0 24 24" fill="none" xmlns="http://www.w3.org/2000/svg">
		<rect width="24" height="24" fill="white"/>
		<path fill-rule="evenodd" clip-rule="evenodd" d="M6 4C7.10457 4 8 4.85139 8 5.90164L8 18.0984C8 19.1486 7.10457 20 6 20C4.89543 20 4 19.1486 4 18.0984L4 5.90164C4 4.85139 4.89543 4 6 4Z" stroke="#51BBCB" stroke-width="2" stroke-linecap="round"/>
		<path fill-rule="evenodd" clip-rule="evenodd" d="M19.4478 4.54973C20.1785 5.28834 20.1849 6.49237 19.462 7.23901L14.8526 12L19.462 16.761C20.1849 17.5076 20.1785 18.7117 19.4478 19.4503C18.7171 20.1889 17.5387 20.1824 16.8158 19.4357L11.9833 14.4442C10.6723 13.09 10.6722 10.91 11.9832 9.55583L16.8158 4.56427C17.5387 3.81763 18.7171 3.81112 19.4478 4.54973Z" stroke="#51BBCB" stroke-width="2" stroke-linecap="round"/>
	</symbol>
	<symbol id="menu__blog" width="24" height="24" viewBox="0 0 24 24" fill="none" xmlns="http://www.w3.org/2000/svg">
		<path d="M16 6H19C19.2652 6 19.5196 6.10536 19.7071 6.29289C19.8946 6.48043 20 6.73478 20 7V18C20 18.5304 19.7893 19.0391 19.4142 19.4142C19.0391 19.7893 18.5304 20 18 20C17.4696 20 16.9609 19.7893 16.5858 19.4142C16.2107 19.0391 16 18.5304 16 18V5C16 4.73478 15.8946 4.48043 15.7071 4.29289C15.5196 4.10536 15.2652 4 15 4H5C4.73478 4 4.48043 4.10536 4.29289 4.29289C4.10536 4.48043 4 4.73478 4 5V17C4 17.7957 4.31607 18.5587 4.87868 19.1213C5.44129 19.6839 6.20435 20 7 20H18" stroke="#DE8F9E" stroke-width="2" stroke-linecap="round" stroke-linejoin="round"/>
		<path d="M8 8H12" stroke="#DE8F9E" stroke-width="2" stroke-linecap="round" stroke-linejoin="round"/>
		<path d="M8 12H12" stroke="#DE8F9E" stroke-width="2" stroke-linecap="round" stroke-linejoin="round"/>
		<path d="M8 16H12" stroke="#DE8F9E" stroke-width="2" stroke-linecap="round" stroke-linejoin="round"/>
	</symbol>
	<symbol id="menu__busket" width="20" height="20" viewBox="0 0 20 20" fill="none" xmlns="http://www.w3.org/2000/svg">
		<path d="M5 1.66666L2.5 5V16.6667C2.5 17.1087 2.67559 17.5326 2.98816 17.8452C3.30072 18.1577 3.72464 18.3333 4.16667 18.3333H15.8333C16.2754 18.3333 16.6993 18.1577 17.0118 17.8452C17.3244 17.5326 17.5 17.1087 17.5 16.6667V5L15 1.66666H5Z" stroke="#6C84BD" stroke-width="2" stroke-linecap="round" stroke-linejoin="round"/>
		<path d="M2.5 5H17.5" stroke="#6C84BD" stroke-width="2" stroke-linecap="round" stroke-linejoin="round"/>
		<path d="M13.3334 8.33334C13.3334 9.21739 12.9822 10.0652 12.3571 10.6904C11.732 11.3155 10.8841 11.6667 10.0001 11.6667C9.11603 11.6667 8.26818 11.3155 7.64306 10.6904C7.01794 10.0652 6.66675 9.21739 6.66675 8.33334" stroke="#6C84BD" stroke-width="2" stroke-linecap="round" stroke-linejoin="round"/>
	</symbol>
	<symbol id="menu__catalog" width="24" height="24" viewBox="0 0 24 24" fill="none" xmlns="http://www.w3.org/2000/svg">
		<path d="M12 21C16.9706 21 21 16.9706 21 12C21 7.02944 16.9706 3 12 3C7.02944 3 3 7.02944 3 12C3 16.9706 7.02944 21 12 21Z" stroke="#80D0AD" stroke-width="2" stroke-linecap="round" stroke-linejoin="round"/>
		<path d="M12 15C13.6569 15 15 13.6569 15 12C15 10.3431 13.6569 9 12 9C10.3431 9 9 10.3431 9 12C9 13.6569 10.3431 15 12 15Z" stroke="#80D0AD" stroke-width="2" stroke-linecap="round" stroke-linejoin="round"/>
		<path d="M15 12H21M3 12H9H3Z" stroke="#80D0AD" stroke-width="2" stroke-linecap="round" stroke-linejoin="round"/>
	</symbol>
	<symbol id="menu__contacts" width="24" height="24" viewBox="0 0 24 24" fill="none" xmlns="http://www.w3.org/2000/svg">
		<path d="M12 13.9997C13.6569 13.9997 15 12.6565 15 10.9997C15 9.34284 13.6569 7.99969 12 7.99969C10.3431 7.99969 9 9.34284 9 10.9997C9 12.6565 10.3431 13.9997 12 13.9997Z" stroke="#93BB49" stroke-width="2" stroke-linecap="round" stroke-linejoin="round"/>
		<path d="M17.657 16.6567L13.414 20.8997C13.039 21.2743 12.5306 21.4848 12.0005 21.4848C11.4704 21.4848 10.962 21.2743 10.587 20.8997L6.343 16.6567C5.22423 15.5379 4.46234 14.1124 4.15369 12.5606C3.84504 11.0087 4.00349 9.40022 4.60901 7.93844C5.21452 6.47665 6.2399 5.22725 7.55549 4.34821C8.87107 3.46918 10.4178 3 12 3C13.5822 3 15.1289 3.46918 16.4445 4.34821C17.7601 5.22725 18.7855 6.47665 19.391 7.93844C19.9965 9.40022 20.155 11.0087 19.8463 12.5606C19.5377 14.1124 18.7758 15.5379 17.657 16.6567V16.6567Z" stroke="#93BB49" stroke-width="2" stroke-linecap="round" stroke-linejoin="round"/>
	</symbol>
	<symbol id="menu__delivery" width="24" height="24" viewBox="0 0 24 24" fill="none" xmlns="http://www.w3.org/2000/svg">
		<path d="M8 19C9.10457 19 10 18.1046 10 17C10 15.8954 9.10457 15 8 15C6.89543 15 6 15.8954 6 17C6 18.1046 6.89543 19 8 19Z" stroke="#E17158" stroke-width="2" stroke-linecap="round" stroke-linejoin="round"/>
		<path d="M17 19C18.1046 19 19 18.1046 19 17C19 15.8954 18.1046 15 17 15C15.8954 15 15 15.8954 15 17C15 18.1046 15.8954 19 17 19Z" stroke="#E17158" stroke-width="2" stroke-linecap="round" stroke-linejoin="round"/>
		<path d="M6 17H4V13M3 5H13V17M10 17H15M19 17H21V11M21 11H13M21 11L18 6H13" stroke="#E17158" stroke-width="2" stroke-linecap="round" stroke-linejoin="round"/>
		<path d="M4 9H8" stroke="#E17158" stroke-width="2" stroke-linecap="round" stroke-linejoin="round"/>
	</symbol>
</svg>