<svg>
	<symbol id="menu__about" width="24" height="24" viewBox="0 0 24 24" fill="none" xmlns="http://www.w3.org/2000/svg">
		<rect width="24" height="24" fill="white"/>
		<path fill-rule="evenodd" clip-rule="evenodd" d="M6 4C7.10457 4 8 4.85139 8 5.90164L8 18.0984C8 19.1486 7.10457 20 6 20C4.89543 20 4 19.1486 4 18.0984L4 5.90164C4 4.85139 4.89543 4 6 4Z" stroke="#51BBCB" stroke-width="2" stroke-linecap="round"/>
		<path fill-rule="evenodd" clip-rule="evenodd" d="M19.4478 4.54973C20.1785 5.28834 20.1849 6.49237 19.462 7.23901L14.8526 12L19.462 16.761C20.1849 17.5076 20.1785 18.7117 19.4478 19.4503C18.7171 20.1889 17.5387 20.1824 16.8158 19.4357L11.9833 14.4442C10.6723 13.09 10.6722 10.91 11.9832 9.55583L16.8158 4.56427C17.5387 3.81763 18.7171 3.81112 19.4478 4.54973Z" stroke="#51BBCB" stroke-width="2" stroke-linecap="round"/>
	</symbol>
	<symbol id="menu__blog" width="24" height="24" viewBox="0 0 24 24" fill="none" xmlns="http://www.w3.org/2000/svg">
		<path d="M16 6H19C19.2652 6 19.5196 6.10536 19.7071 6.29289C19.8946 6.48043 20 6.73478 20 7V18C20 18.5304 19.7893 19.0391 19.4142 19.4142C19.0391 19.7893 18.5304 20 18 20C17.4696 20 16.9609 19.7893 16.5858 19.4142C16.2107 19.0391 16 18.5304 16 18V5C16 4.73478 15.8946 4.48043 15.7071 4.29289C15.5196 4.10536 15.2652 4 15 4H5C4.73478 4 4.48043 4.10536 4.29289 4.29289C4.10536 4.48043 4 4.73478 4 5V17C4 17.7957 4.31607 18.5587 4.87868 19.1213C5.44129 19.6839 6.20435 20 7 20H18" stroke="#DE8F9E" stroke-width="2" stroke-linecap="round" stroke-linejoin="round"/>
		<path d="M8 8H12" stroke="#DE8F9E" stroke-width="2" stroke-linecap="round" stroke-linejoin="round"/>
		<path d="M8 12H12" stroke="#DE8F9E" stroke-width="2" stroke-linecap="round" stroke-linejoin="round"/>
		<path d="M8 16H12" stroke="#DE8F9E" stroke-width="2" stroke-linecap="round" stroke-linejoin="round"/>
	</symbol>
	<symbol id="menu__busket" width="20" height="20" viewBox="0 0 20 20" fill="none" xmlns="http://www.w3.org/2000/svg">
		<path d="M5 1.66666L2.5 5V16.6667C2.5 17.1087 2.67559 17.5326 2.98816 17.8452C3.30072 18.1577 3.72464 18.3333 4.16667 18.3333H15.8333C16.2754 18.3333 16.6993 18.1577 17.0118 17.8452C17.3244 17.5326 17.5 17.1087 17.5 16.6667V5L15 1.66666H5Z" stroke="#6C84BD" stroke-width="2" stroke-linecap="round" stroke-linejoin="round"/>
		<path d="M2.5 5H17.5" stroke="#6C84BD" stroke-width="2" stroke-linecap="round" stroke-linejoin="round"/>
		<path d="M13.3334 8.33334C13.3334 9.21739 12.9822 10.0652 12.3571 10.6904C11.732 11.3155 10.8841 11.6667 10.0001 11.6667C9.11603 11.6667 8.26818 11.3155 7.64306 10.6904C7.01794 10.0652 6.66675 9.21739 6.66675 8.33334" stroke="#6C84BD" stroke-width="2" stroke-linecap="round" stroke-linejoin="round"/>
	</symbol>
	<symbol id="menu__catalog" width="24" height="24" viewBox="0 0 24 24" fill="none" xmlns="http://www.w3.org/2000/svg">
		<path d="M12 21C16.9706 21 21 16.9706 21 12C21 7.02944 16.9706 3 12 3C7.02944 3 3 7.02944 3 12C3 16.9706 7.02944 21 12 21Z" stroke="#80D0AD" stroke-width="2" stroke-linecap="round" stroke-linejoin="round"/>
		<path d="M12 15C13.6569 15 15 13.6569 15 12C15 10.3431 13.6569 9 12 9C10.3431 9 9 10.3431 9 12C9 13.6569 10.3431 15 12 15Z" stroke="#80D0AD" stroke-width="2" stroke-linecap="round" stroke-linejoin="round"/>
		<path d="M15 12H21M3 12H9H3Z" stroke="#80D0AD" stroke-width="2" stroke-linecap="round" stroke-linejoin="round"/>
	</symbol>
	<symbol id="menu__contacts" width="24" height="24" viewBox="0 0 24 24" fill="none" xmlns="http://www.w3.org/2000/svg">
		<path d="M12 13.9997C13.6569 13.9997 15 12.6565 15 10.9997C15 9.34284 13.6569 7.99969 12 7.99969C10.3431 7.99969 9 9.34284 9 10.9997C9 12.6565 10.3431 13.9997 12 13.9997Z" stroke="#93BB49" stroke-width="2" stroke-linecap="round" stroke-linejoin="round"/>
		<path d="M17.657 16.6567L13.414 20.8997C13.039 21.2743 12.5306 21.4848 12.0005 21.4848C11.4704 21.4848 10.962 21.2743 10.587 20.8997L6.343 16.6567C5.22423 15.5379 4.46234 14.1124 4.15369 12.5606C3.84504 11.0087 4.00349 9.40022 4.60901 7.93844C5.21452 6.47665 6.2399 5.22725 7.55549 4.34821C8.87107 3.46918 10.4178 3 12 3C13.5822 3 15.1289 3.46918 16.4445 4.34821C17.7601 5.22725 18.7855 6.47665 19.391 7.93844C19.9965 9.40022 20.155 11.0087 19.8463 12.5606C19.5377 14.1124 18.7758 15.5379 17.657 16.6567V16.6567Z" stroke="#93BB49" stroke-width="2" stroke-linecap="round" stroke-linejoin="round"/>
	</symbol>
	<symbol id="menu__delivery" width="24" height="24" viewBox="0 0 24 24" fill="none" xmlns="http://www.w3.org/2000/svg">
		<path d="M8 19C9.10457 19 10 18.1046 10 17C10 15.8954 9.10457 15 8 15C6.89543 15 6 15.8954 6 17C6 18.1046 6.89543 19 8 19Z" stroke="#E17158" stroke-width="2" stroke-linecap="round" stroke-linejoin="round"/>
		<path d="M17 19C18.1046 19 19 18.1046 19 17C19 15.8954 18.1046 15 17 15C15.8954 15 15 15.8954 15 17C15 18.1046 15.8954 19 17 19Z" stroke="#E17158" stroke-width="2" stroke-linecap="round" stroke-linejoin="round"/>
		<path d="M6 17H4V13M3 5H13V17M10 17H15M19 17H21V11M21 11H13M21 11L18 6H13" stroke="#E17158" stroke-width="2" stroke-linecap="round" stroke-linejoin="round"/>
		<path d="M4 9H8" stroke="#E17158" stroke-width="2" stroke-linecap="round" stroke-linejoin="round"/>
	</symbol>
	<symbol id="button__filter" width="14" height="14" viewBox="0 0 14 14" fill="none" xmlns="http://www.w3.org/2000/svg">
		<path d="M1 1.75C0.585786 1.75 0.25 2.08579 0.25 2.5C0.25 2.91421 0.585786 3.25 1 3.25L1 1.75ZM13 3.25C13.4142 3.25 13.75 2.91421 13.75 2.5C13.75 2.08579 13.4142 1.75 13 1.75L13 3.25ZM1 6.25C0.585787 6.25 0.25 6.58579 0.25 7C0.25 7.41421 0.585786 7.75 1 7.75L1 6.25ZM13 7.75C13.4142 7.75 13.75 7.41421 13.75 7C13.75 6.58579 13.4142 6.25 13 6.25L13 7.75ZM1 10.75C0.585786 10.75 0.25 11.0858 0.25 11.5C0.25 11.9142 0.585786 12.25 1 12.25V10.75ZM13 12.25C13.4142 12.25 13.75 11.9142 13.75 11.5C13.75 11.0858 13.4142 10.75 13 10.75V12.25ZM9.25 2.5C9.25 2.91421 8.91421 3.25 8.5 3.25V4.75C9.74264 4.75 10.75 3.74264 10.75 2.5H9.25ZM8.5 3.25C8.08579 3.25 7.75 2.91421 7.75 2.5H6.25C6.25 3.74264 7.25736 4.75 8.5 4.75V3.25ZM7.75 2.5C7.75 2.08579 8.08579 1.75 8.5 1.75V0.25C7.25736 0.25 6.25 1.25736 6.25 2.5H7.75ZM8.5 1.75C8.91421 1.75 9.25 2.08579 9.25 2.5H10.75C10.75 1.25736 9.74264 0.25 8.5 0.25V1.75ZM1 3.25L7 3.25L7 1.75L1 1.75L1 3.25ZM10 3.25L13 3.25L13 1.75L10 1.75L10 3.25ZM4.75 7C4.75 7.41421 4.41422 7.75 4 7.75V9.25C5.24264 9.25 6.25 8.24264 6.25 7H4.75ZM4 7.75C3.58579 7.75 3.25 7.41421 3.25 7H1.75C1.75 8.24264 2.75736 9.25 4 9.25V7.75ZM3.25 7C3.25 6.58579 3.58579 6.25 4 6.25V4.75C2.75736 4.75 1.75 5.75736 1.75 7H3.25ZM4 6.25C4.41422 6.25 4.75 6.58579 4.75 7H6.25C6.25 5.75736 5.24264 4.75 4 4.75V6.25ZM1 7.75L2.5 7.75L2.5 6.25L1 6.25L1 7.75ZM5.5 7.75L13 7.75L13 6.25L5.5 6.25L5.5 7.75ZM11.5 11.5C11.5 11.9142 11.1642 12.25 10.75 12.25V13.75C11.9926 13.75 13 12.7426 13 11.5H11.5ZM10.75 12.25C10.3358 12.25 10 11.9142 10 11.5H8.5C8.5 12.7426 9.50736 13.75 10.75 13.75V12.25ZM10 11.5C10 11.0858 10.3358 10.75 10.75 10.75V9.25C9.50736 9.25 8.5 10.2574 8.5 11.5H10ZM10.75 10.75C11.1642 10.75 11.5 11.0858 11.5 11.5H13C13 10.2574 11.9926 9.25 10.75 9.25V10.75ZM1 12.25H9.25V10.75H1V12.25ZM12.25 12.25H13V10.75H12.25V12.25Z" fill="#31343E"/>
	</symbol>
	<symbol id="button__sorting" width="10" height="10" viewBox="0 0 10 10" fill="none" xmlns="http://www.w3.org/2000/svg">
		<rect y="5" width="2" height="5" rx="1" fill="#31343E"/>
		<rect x="4" y="3" width="2" height="7" rx="1" fill="#31343E"/>
		<rect x="8" width="2" height="10" rx="1" fill="#31343E"/>
	</symbol>
	<symbol id="arrow__chevron" width="10" height="7" viewBox="0 0 10 7" fill="none" xmlns="http://www.w3.org/2000/svg">
		<path d="M8.51038 1.75586L4.75519 5.51105L1 1.75586" stroke="#31343E" stroke-width="2" stroke-linecap="round"/>
	</symbol>
	<symbol id="product__detail-busket-white" width="20" height="20" viewBox="0 0 20 20" fill="none" xmlns="http://www.w3.org/2000/svg">
		<path d="M5 1.66602L2.5 4.99935V16.666C2.5 17.108 2.67559 17.532 2.98816 17.8445C3.30072 18.1571 3.72464 18.3327 4.16667 18.3327H15.8333C16.2754 18.3327 16.6993 18.1571 17.0118 17.8445C17.3244 17.532 17.5 17.108 17.5 16.666V4.99935L15 1.66602H5Z" stroke="#fff" stroke-width="1.5" stroke-linecap="round" stroke-linejoin="round"/>
		<path d="M2.5 5H17.5" stroke="#fff" stroke-width="1.5" stroke-linecap="round" stroke-linejoin="round"/>
		<path d="M13.3334 8.33398C13.3334 9.21804 12.9822 10.0659 12.357 10.691C11.7319 11.3161 10.8841 11.6673 10 11.6673C9.11597 11.6673 8.26812 11.3161 7.643 10.691C7.01788 10.0659 6.66669 9.21804 6.66669 8.33398" stroke="#fff" stroke-width="1.5" stroke-linecap="round" stroke-linejoin="round"/>
	</symbol>
	<symbol id="product__detail-warning" width="44" height="44" viewBox="0 0 44 44" fill="none" xmlns="http://www.w3.org/2000/svg">
	<path d="M22 16.5L22 22M22 27.5V27.5183" stroke="#E17158" stroke-width="2.75" stroke-linecap="round" stroke-linejoin="round"/>
	<path d="M9.16661 34.833H34.8333C35.4315 34.8288 36.0196 34.6783 36.5463 34.3946C37.073 34.1109 37.5223 33.7026 37.855 33.2054C38.1877 32.7082 38.3936 32.1371 38.4549 31.542C38.5162 30.9469 38.431 30.3459 38.2066 29.7913L25.1899 7.33296C24.8729 6.75985 24.408 6.28214 23.8438 5.9495C23.2796 5.61685 22.6366 5.44141 21.9816 5.44141C21.3266 5.44141 20.6836 5.61685 20.1194 5.9495C19.5552 6.28214 19.0904 6.75985 18.7733 7.33296L5.75661 29.7913C5.5365 30.3332 5.44922 30.9199 5.50205 31.5024C5.55488 32.0848 5.74629 32.6463 6.0603 33.1397C6.37431 33.6331 6.80181 34.0443 7.30711 34.3389C7.8124 34.6334 8.38083 34.8028 8.96494 34.833" stroke="#E17158" stroke-width="2.75" stroke-linecap="round" stroke-linejoin="round"/>
	</symbol>
	<symbol id="product__detail-flag" width="44" height="44" viewBox="0 0 44 44" fill="none" xmlns="http://www.w3.org/2000/svg">
		<path d="M9.16663 25.666H34.8333L26.5833 17.416L34.8333 9.16602H9.16663V38.4993" stroke="#31343E" stroke-width="2.75" stroke-linecap="round" stroke-linejoin="round"/>
	</symbol>
	<symbol id="product__detail-cube" width="45" height="44" viewBox="0 0 45 44" fill="none" xmlns="http://www.w3.org/2000/svg">
		<path d="M22.5 5.5L37.1667 13.75V30.25L22.5 38.5L7.83337 30.25V13.75L22.5 5.5Z" stroke="#31343E" stroke-width="2.75" stroke-linecap="round" stroke-linejoin="round"/>
		<path d="M22.5 22L37.1667 13.75" stroke="#31343E" stroke-width="2.75" stroke-linecap="round" stroke-linejoin="round"/>
		<path d="M22.5 22V38.5" stroke="#31343E" stroke-width="2.75" stroke-linecap="round" stroke-linejoin="round"/>
		<path d="M22.5 22L7.83337 13.75" stroke="#31343E" stroke-width="2.75" stroke-linecap="round" stroke-linejoin="round"/>
		<path d="M29.8333 9.625L15.1666 17.875" stroke="#31343E" stroke-width="2.75" stroke-linecap="round" stroke-linejoin="round"/>
	</symbol>
	<symbol id="product__detail-shield" width="44" height="44" viewBox="0 0 44 44" fill="none" xmlns="http://www.w3.org/2000/svg">
		<path d="M16.5 22.0007L20.1667 25.6673L27.5 18.334" stroke="#31343E" stroke-width="2.75" stroke-linecap="round" stroke-linejoin="round"/>
		<path d="M22.0001 5.5C26.2825 9.28872 31.8716 11.2614 37.5834 11C38.415 13.8289 38.6695 16.796 38.3317 19.7252C37.9939 22.6543 37.0707 25.4857 35.617 28.051C34.1633 30.6163 32.2088 32.8632 29.8696 34.6582C27.5304 36.4532 24.8542 37.7597 22.0001 38.5C19.146 37.7597 16.4698 36.4532 14.1306 34.6582C11.7914 32.8632 9.83687 30.6163 8.3832 28.051C6.92952 25.4857 6.00635 22.6543 5.66854 19.7252C5.33073 16.796 5.58518 13.8289 6.41677 11C12.1286 11.2614 17.7177 9.28872 22.0001 5.5" stroke="#31343E" stroke-width="2.75" stroke-linecap="round" stroke-linejoin="round"/>
	</symbol>
	<symbol id="cart-trash" width="24" height="24" viewBox="0 0 24 24" fill="none" xmlns="http://www.w3.org/2000/svg">
		<path d="M4 7H20" stroke="#31343E" stroke-width="1.5" stroke-linecap="round" stroke-linejoin="round"/>
		<path d="M10 11V17" stroke="#31343E" stroke-width="1.5" stroke-linecap="round" stroke-linejoin="round"/>
		<path d="M14 11V17" stroke="#31343E" stroke-width="1.5" stroke-linecap="round" stroke-linejoin="round"/>
		<path d="M5 7L6 19C6 19.5304 6.21071 20.0391 6.58579 20.4142C6.96086 20.7893 7.46957 21 8 21H16C16.5304 21 17.0391 20.7893 17.4142 20.4142C17.7893 20.0391 18 19.5304 18 19L19 7" stroke="#31343E" stroke-width="1.5" stroke-linecap="round" stroke-linejoin="round"/>
		<path d="M9 7V4C9 3.73478 9.10536 3.48043 9.29289 3.29289C9.48043 3.10536 9.73478 3 10 3H14C14.2652 3 14.5196 3.10536 14.7071 3.29289C14.8946 3.48043 15 3.73478 15 4V7" stroke="#31343E" stroke-width="1.5" stroke-linecap="round" stroke-linejoin="round"/>
	</symbol>
	<symbol id="success" width="24" height="24" viewBox="0 0 24 24" fill="none" xmlns="http://www.w3.org/2000/svg">
		<path d="M12 21C16.9706 21 21 16.9706 21 12C21 7.02944 16.9706 3 12 3C7.02944 3 3 7.02944 3 12C3 16.9706 7.02944 21 12 21Z" stroke="#80D0AD" stroke-width="1.5" stroke-linecap="round" stroke-linejoin="round"/>
		<path d="M9 12L11 14L15 10" stroke="#80D0AD" stroke-width="1.5" stroke-linecap="round" stroke-linejoin="round"/>
	</symbol>
	<symbol id="close" width="13" height="13" viewBox="0 0 13 13" fill="none" xmlns="http://www.w3.org/2000/svg">
		<rect x="1.41406" width="16" height="2" rx="1" transform="rotate(45 1.41406 0)" fill="#31343E"/>
		<rect x="12.728" y="1.41406" width="16" height="2" rx="1" transform="rotate(135 12.728 1.41406)" fill="#31343E"/>
	</symbol>
	<symbol id="success-image" width="90" height="90" viewBox="0 0 90 90" fill="none" xmlns="http://www.w3.org/2000/svg">
		<rect opacity="0.12" width="90" height="90" rx="15" fill="#DE8F9E"/>
		<path d="M27 29.25H31.5" stroke="#DE8F9E" stroke-width="2.75" stroke-linecap="round" stroke-linejoin="round"/>
		<path d="M29.25 27V31.5" stroke="#DE8F9E" stroke-width="2.75" stroke-linecap="round" stroke-linejoin="round"/>
		<path d="M43.875 27L42.75 31.5" stroke="#DE8F9E" stroke-width="2.75" stroke-linecap="round" stroke-linejoin="round"/>
		<path d="M58.5 29.25H63" stroke="#DE8F9E" stroke-width="2.75" stroke-linecap="round" stroke-linejoin="round"/>
		<path d="M60.75 27V31.5" stroke="#DE8F9E" stroke-width="2.75" stroke-linecap="round" stroke-linejoin="round"/>
		<path d="M51.75 38.25L49.5 40.5" stroke="#DE8F9E" stroke-width="2.75" stroke-linecap="round" stroke-linejoin="round"/>
		<path d="M58.5 47.25L63 46.125" stroke="#DE8F9E" stroke-width="2.75" stroke-linecap="round" stroke-linejoin="round"/>
		<path d="M58.5 60.75H63" stroke="#DE8F9E" stroke-width="2.75" stroke-linecap="round" stroke-linejoin="round"/>
		<path d="M60.75 58.5V63" stroke="#DE8F9E" stroke-width="2.75" stroke-linecap="round" stroke-linejoin="round"/>
		<path d="M49.4998 55.1655L34.8343 40.5L24.9568 62.055C24.7657 62.4735 24.7071 62.9404 24.7888 63.3931C24.8705 63.8459 25.0886 64.2629 25.4139 64.5882C25.7392 64.9135 26.1562 65.1316 26.6089 65.2133C27.0617 65.295 27.5286 65.2363 27.9471 65.0453L49.4998 55.1677V55.1655Z" stroke="#DE8F9E" stroke-width="2.75" stroke-linecap="round" stroke-linejoin="round"/>
	</symbol>
	<symbol id="whatsup" width="27" height="26" viewBox="0 0 27 26" fill="none" xmlns="http://www.w3.org/2000/svg">
		<path d="M3.375 22.7493L5.23125 18.6326C3.81112 16.6914 3.1755 14.3177 3.44368 11.9572C3.71185 9.59674 4.86538 7.41161 6.6878 5.81194C8.51021 4.21227 10.8762 3.30803 13.3418 3.2689C15.8074 3.22978 18.2031 4.05847 20.0792 5.59945C21.9554 7.14043 23.183 9.28777 23.5318 11.6385C23.8806 13.9892 23.3266 16.3817 21.9736 18.367C20.6207 20.3522 18.5619 21.7938 16.1836 22.4212C13.8053 23.0485 11.271 22.8185 9.05625 21.7743L3.375 22.7493" stroke="white" stroke-width="2" stroke-linecap="round" stroke-linejoin="round"/>
		<path d="M10.125 10.834C10.125 10.9776 10.1843 11.1154 10.2898 11.217C10.3952 11.3186 10.5383 11.3757 10.6875 11.3757C10.8367 11.3757 10.9798 11.3186 11.0852 11.217C11.1907 11.1154 11.25 10.9776 11.25 10.834V9.75065C11.25 9.60699 11.1907 9.46922 11.0852 9.36763C10.9798 9.26605 10.8367 9.20898 10.6875 9.20898C10.5383 9.20898 10.3952 9.26605 10.2898 9.36763C10.1843 9.46922 10.125 9.60699 10.125 9.75065V10.834ZM10.125 10.834C10.125 12.2706 10.7176 13.6483 11.7725 14.6641C12.8274 15.68 14.2582 16.2507 15.75 16.2507H16.875C17.0242 16.2507 17.1673 16.1936 17.2727 16.092C17.3782 15.9904 17.4375 15.8526 17.4375 15.709C17.4375 15.5653 17.3782 15.4276 17.2727 15.326C17.1673 15.2244 17.0242 15.1673 16.875 15.1673H15.75C15.6008 15.1673 15.4577 15.2244 15.3523 15.326C15.2468 15.4276 15.1875 15.5653 15.1875 15.709C15.1875 15.8526 15.2468 15.9904 15.3523 16.092C15.4577 16.1936 15.6008 16.2507 15.75 16.2507" stroke="white" stroke-width="2" stroke-linecap="round" stroke-linejoin="round"/>
	</symbol>
	<symbol id="telegram" width="27" height="26" viewBox="0 0 27 26" fill="none" xmlns="http://www.w3.org/2000/svg">
		<path d="M16.875 10.834L12.375 15.1673L19.125 21.6673L23.625 4.33398L3.375 11.9173L7.875 14.084L10.125 20.584L13.5 16.2507" stroke="white" stroke-width="2" stroke-linecap="round" stroke-linejoin="round"/>
	</symbol>
	<symbol id="breadcrumb" width="4" height="7" viewBox="0 0 4 7" fill="none" xmlns="http://www.w3.org/2000/svg">
		<path d="M0.591797 1L3.1836 3.5918L0.591797 6.18361" stroke="#31343E" stroke-linecap="round"/>
	</symbol>
	<symbol id="minus" width="12" height="2" viewBox="0 0 12 2" fill="none" xmlns="http://www.w3.org/2000/svg">
		<rect width="12" height="2" rx="1" fill="#31343E"/>
	</symbol>
	<symbol id="plus" width="12" height="12" viewBox="0 0 12 12" fill="none" xmlns="http://www.w3.org/2000/svg">
		<rect y="5" width="12" height="2" rx="1" fill="#31343E"/>
		<rect x="7" width="12" height="2" rx="1" transform="rotate(90 7 0)" fill="#31343E"/>
	</symbol>

</svg>