<svg width="28" height="28" viewBox="0 0 28 28" fill="none" xmlns="http://www.w3.org/2000/svg">
<path d="M18.6666 4.66602H9.33328C6.75595 4.66602 4.66661 6.75535 4.66661 9.33268V18.666C4.66661 21.2433 6.75595 23.3327 9.33328 23.3327H18.6666C21.2439 23.3327 23.3333 21.2433 23.3333 18.666V9.33268C23.3333 6.75535 21.2439 4.66602 18.6666 4.66602Z" stroke="white" stroke-width="2" stroke-linecap="round" stroke-linejoin="round"/>
<path d="M14 17.5C15.933 17.5 17.5 15.933 17.5 14C17.5 12.067 15.933 10.5 14 10.5C12.067 10.5 10.5 12.067 10.5 14C10.5 15.933 12.067 17.5 14 17.5Z" stroke="white" stroke-width="2" stroke-linecap="round" stroke-linejoin="round"/>
<path d="M19.25 8.75V8.751" stroke="white" stroke-width="2" stroke-linecap="round" stroke-linejoin="round"/>
</svg>
