<svg width="43" height="43" viewBox="0 0 43 43" fill="none" xmlns="http://www.w3.org/2000/svg">
<path fill-rule="evenodd" clip-rule="evenodd" d="M33.0324 1.68533C35.2385 -0.544709 38.8346 -0.564148 41.0647 1.64191C43.2947 3.84797 43.3142 7.44414 41.1081 9.67418L29.6161 21.2911L41.1081 32.908C43.3142 35.138 43.2947 38.7342 41.0647 40.9402C38.8346 43.1463 35.2385 43.1268 33.0324 40.8968L20.3918 28.1188C16.6497 24.3361 16.6497 18.2461 20.3918 14.4633L33.0324 1.68533ZM39.923 2.79603C38.3303 1.22052 35.762 1.2344 34.1865 2.82704L31.4379 5.60557L34.763 13.7799L39.954 8.53247C41.5295 6.93983 41.5156 4.37154 39.923 2.79603ZM33.5211 15.0353L30.196 6.86098L22.1329 15.0117L28.3505 20.2621L33.5211 15.0353ZM21.5459 26.9771C18.6172 24.0166 18.4409 19.359 21.0169 16.1941L27.3026 21.5019L21.6169 27.0489L21.5459 26.9771ZM31.1915 36.7275L22.7587 28.203L28.5657 22.5376L33.8577 27.8871L31.1915 36.7275ZM32.491 38.0411L34.1865 39.7551C35.762 41.3477 38.3303 41.3616 39.923 39.7861C41.5156 38.2106 41.5295 35.6423 39.954 34.0497L35.1572 29.2007L32.491 38.0411ZM5.67975 0.168049C8.81659 0.168049 11.3595 2.71096 11.3595 5.8478L11.3595 37.0704C11.3595 40.2073 8.8166 42.7502 5.67976 42.7502C2.54291 42.7502 0 40.2073 0 37.0704V5.8478C0 2.71096 2.54291 0.16805 5.67975 0.168049ZM9.73609 5.8478C9.73609 3.60755 7.92001 1.79147 5.67975 1.79147C3.4395 1.79147 1.62342 3.60755 1.62342 5.8478L1.62342 10.6093L9.73609 14.0251V5.8478ZM1.62342 30.2649L1.62342 12.3707L9.73609 15.7866L9.73609 25.9188L1.62342 30.2649ZM1.62342 32.1066L1.62342 37.0704C1.62342 39.3107 3.4395 41.1268 5.67975 41.1268C7.92001 41.1268 9.73609 39.3107 9.73609 37.0704V27.7605L1.62342 32.1066Z" fill="white"/>
</svg>
