<svg width="40" height="40" viewBox="0 0 40 40" fill="none" xmlns="http://www.w3.org/2000/svg">
<path d="M10.0846 5.61263V16.4357L0 11.1424V5.61263C0 4.27533 0.531241 2.99279 1.47686 2.04718C2.42248 1.10156 3.70501 0.570312 5.04232 0.570312C6.37963 0.570312 7.66216 1.10156 8.60778 2.04718C9.5534 2.99279 10.0846 4.27533 10.0846 5.61263Z" fill="#DE8F9E"/>
<path d="M10.0846 16.4359V23.3708L0 28.6641V11.1426L10.0846 16.4359Z" fill="#E17158"/>
<path d="M10.0846 23.3711V34.1942C10.0846 35.5315 9.5534 36.814 8.60778 37.7596C7.66216 38.7052 6.37963 39.2365 5.04232 39.2365C3.70501 39.2365 2.42248 38.7052 1.47686 37.7596C0.531241 36.814 0 35.5315 0 34.1942V28.6644L10.0846 23.3711Z" fill="#8C6F9E"/>
<path d="M38.523 38.0834C38.0548 38.5517 37.4989 38.9231 36.8871 39.1765C36.2754 39.4299 35.6197 39.5603 34.9575 39.5603C34.2953 39.5603 33.6396 39.4299 33.0279 39.1765C32.4161 38.9231 31.8602 38.5517 31.392 38.0834L30.1483 36.8397L32.7053 25.1348L38.523 30.9525C38.9912 31.4207 39.3626 31.9766 39.616 32.5883C39.8694 33.2001 39.9999 33.8558 39.9999 34.518C39.9999 35.1801 39.8694 35.8358 39.616 36.4476C39.3626 37.0594 38.9912 37.6152 38.523 38.0834Z" fill="#93BB49"/>
<path d="M32.7054 25.1333L30.1484 36.8382L20.6677 27.3575L27.7975 20.2266L32.7054 25.1333Z" fill="#80D0AD"/>
<path d="M27.7974 20.2267L20.6676 27.3576L20.4894 27.1795C18.6478 25.334 17.6135 22.8333 17.6135 20.2261C17.6135 17.6189 18.6478 15.1182 20.4894 13.2727L20.6665 13.0957L27.7974 20.2267Z" fill="#6C84BD"/>
<path d="M32.6967 15.328L27.7978 20.2268L20.6669 13.0959L30.1397 3.62305L32.6967 15.328Z" fill="#51BBCB"/>
<path d="M38.4751 9.54924L32.6966 15.3277L30.1396 3.62283L31.3441 2.41828C32.2898 1.47265 33.5723 0.941406 34.9096 0.941406C36.2469 0.941406 37.5295 1.47265 38.4751 2.41828C39.4207 3.3639 39.952 4.64644 39.952 5.98376C39.952 7.32107 39.4207 8.60361 38.4751 9.54924Z" fill="#51B15B"/>
</svg>
