<svg width="24" height="24" viewBox="0 0 24 24" fill="none" xmlns="http://www.w3.org/2000/svg">
<path d="M8 19C9.10457 19 10 18.1046 10 17C10 15.8954 9.10457 15 8 15C6.89543 15 6 15.8954 6 17C6 18.1046 6.89543 19 8 19Z" stroke="#E17158" stroke-width="2" stroke-linecap="round" stroke-linejoin="round"/>
<path d="M17 19C18.1046 19 19 18.1046 19 17C19 15.8954 18.1046 15 17 15C15.8954 15 15 15.8954 15 17C15 18.1046 15.8954 19 17 19Z" stroke="#E17158" stroke-width="2" stroke-linecap="round" stroke-linejoin="round"/>
<path d="M6 17H4V13M3 5H13V17M10 17H15M19 17H21V11M21 11H13M21 11L18 6H13" stroke="#E17158" stroke-width="2" stroke-linecap="round" stroke-linejoin="round"/>
<path d="M4 9H8" stroke="#E17158" stroke-width="2" stroke-linecap="round" stroke-linejoin="round"/>
</svg>
