<svg width="24" height="24" viewBox="0 0 24 24" fill="none" xmlns="http://www.w3.org/2000/svg">
<rect width="24" height="24" fill="white"/>
<path fill-rule="evenodd" clip-rule="evenodd" d="M6 4C7.10457 4 8 4.85139 8 5.90164L8 18.0984C8 19.1486 7.10457 20 6 20C4.89543 20 4 19.1486 4 18.0984L4 5.90164C4 4.85139 4.89543 4 6 4Z" stroke="#51BBCB" stroke-width="2" stroke-linecap="round"/>
<path fill-rule="evenodd" clip-rule="evenodd" d="M19.4478 4.54973C20.1785 5.28834 20.1849 6.49237 19.462 7.23901L14.8526 12L19.462 16.761C20.1849 17.5076 20.1785 18.7117 19.4478 19.4503C18.7171 20.1889 17.5387 20.1824 16.8158 19.4357L11.9833 14.4442C10.6723 13.09 10.6722 10.91 11.9832 9.55583L16.8158 4.56427C17.5387 3.81763 18.7171 3.81112 19.4478 4.54973Z" stroke="#51BBCB" stroke-width="2" stroke-linecap="round"/>
</svg>
