<svg width="18" height="18" viewBox="0 0 18 18" fill="none" xmlns="http://www.w3.org/2000/svg">
<path d="M7.4179 14.8246C3.32762 14.8246 -6.10352e-05 11.4995 -6.10352e-05 7.41231C-6.10352e-05 3.32514 3.32762 0 7.4179 0C11.5082 0 14.8359 3.32514 14.8359 7.41231C14.8359 11.4995 11.5082 14.8246 7.4179 14.8246ZM7.4179 1.40518C4.10302 1.40518 1.40619 4.09996 1.40619 7.41231C1.40619 10.7247 4.10302 13.4194 7.4179 13.4194C10.7328 13.4194 13.4296 10.7247 13.4296 7.41231C13.4296 4.09996 10.7328 1.40518 7.4179 1.40518ZM17.794 17.7942C18.0686 17.5199 18.0686 17.075 17.794 16.8006L14.6475 13.6565C14.3729 13.3821 13.9277 13.3821 13.6531 13.6565C13.3786 13.9309 13.3786 14.3758 13.6531 14.6502L16.7996 17.7942C16.9369 17.9314 17.1169 18 17.2968 18C17.4768 18 17.6567 17.9314 17.794 17.7942Z" fill="#fff"/>
<path fill-rule="evenodd" clip-rule="evenodd" d="M7.42665 0.0994477C3.38646 0.0994477 0.0994621 3.38396 0.0994621 7.42108C0.0994621 11.4582 3.38646 14.7427 7.42665 14.7427C11.4668 14.7427 14.7538 11.4582 14.7538 7.42108C14.7538 3.38396 11.4668 0.0994477 7.42665 0.0994477ZM-6.10352e-05 7.42108C-6.10352e-05 3.32903 3.3315 0 7.42665 0C11.5218 0 14.8534 3.32903 14.8534 7.42108C14.8534 11.5131 11.5218 14.8422 7.42665 14.8422C3.3315 14.8422 -6.10352e-05 11.5131 -6.10352e-05 7.42108ZM1.39841 7.42108C1.39841 4.09957 4.10261 1.39741 7.42665 1.39741C10.7507 1.39741 13.4549 4.09957 13.4549 7.42108C13.4549 10.7426 10.7507 13.4447 7.42665 13.4447C4.10261 13.4447 1.39841 10.7426 1.39841 7.42108ZM7.42665 1.49686C4.15758 1.49686 1.49794 4.15449 1.49794 7.42108C1.49794 10.6877 4.15758 13.3453 7.42665 13.3453C10.6957 13.3453 13.3554 10.6877 13.3554 7.42108C13.3554 4.15449 10.6957 1.49686 7.42665 1.49686ZM13.5922 13.5956C13.8847 13.3033 14.359 13.3033 14.6515 13.5956L17.7806 16.7224C18.0731 17.0146 18.0731 17.4885 17.7806 17.7808L17.7454 17.7457L17.7806 17.7808C17.6343 17.9269 17.4426 18 17.251 18C17.0593 18 16.8675 17.9269 16.7213 17.7808L13.5922 14.6541C13.2997 14.3618 13.2997 13.8879 13.5922 13.5956ZM14.5811 13.666C14.3275 13.4125 13.9162 13.4125 13.6626 13.666C13.409 13.9194 13.409 14.3304 13.6626 14.5838L16.7917 17.7105C16.9185 17.8372 17.0846 17.9006 17.251 17.9006C17.4173 17.9006 17.5834 17.8372 17.7102 17.7105C17.9638 17.457 17.9638 17.0461 17.7102 16.7927L14.5811 13.666Z" fill="#fff"/>
</svg>
