<svg width="44" height="44" viewBox="0 0 44 44" fill="none" xmlns="http://www.w3.org/2000/svg">
<path d="M16.5 22.0007L20.1667 25.6673L27.5 18.334" stroke="#31343E" stroke-width="2.75" stroke-linecap="round" stroke-linejoin="round"/>
<path d="M22.0001 5.5C26.2825 9.28872 31.8716 11.2614 37.5834 11C38.415 13.8289 38.6695 16.796 38.3317 19.7252C37.9939 22.6543 37.0707 25.4857 35.617 28.051C34.1633 30.6163 32.2088 32.8632 29.8696 34.6582C27.5304 36.4532 24.8542 37.7597 22.0001 38.5C19.146 37.7597 16.4698 36.4532 14.1306 34.6582C11.7914 32.8632 9.83687 30.6163 8.3832 28.051C6.92952 25.4857 6.00635 22.6543 5.66854 19.7252C5.33073 16.796 5.58518 13.8289 6.41677 11C12.1286 11.2614 17.7177 9.28872 22.0001 5.5" stroke="#31343E" stroke-width="2.75" stroke-linecap="round" stroke-linejoin="round"/>
</svg>
