<svg width="10" height="9" viewBox="0 0 10 9" fill="none" xmlns="http://www.w3.org/2000/svg">
<path d="M3.84744 0.895074C4.07216 0.264143 5.05064 0.264142 5.27537 0.895073L5.83752 2.47336C5.93802 2.75552 6.22626 2.94656 6.55149 2.94656H8.37066C9.09789 2.94656 9.40025 3.79547 8.81192 4.18541L7.34017 5.16085C7.07706 5.33523 6.96696 5.64434 7.06746 5.9265L7.62962 7.50479C7.85434 8.13572 7.06274 8.66037 6.4744 8.27044L5.00266 7.295C4.73954 7.12062 4.38326 7.12062 4.12015 7.295L2.64841 8.27044C2.06007 8.66037 1.26846 8.13572 1.49319 7.50479L2.05534 5.9265C2.15584 5.64434 2.04575 5.33523 1.78263 5.16085L0.310891 4.18541C-0.277448 3.79547 0.0249186 2.94656 0.752146 2.94656H2.57132C2.89654 2.94656 3.18478 2.75552 3.28528 2.47336L3.84744 0.895074Z" fill="#F2CAA3"/>
</svg>
