<svg width="90" height="90" viewBox="0 0 90 90" fill="none" xmlns="http://www.w3.org/2000/svg">
<rect opacity="0.12" width="90" height="90" rx="15" fill="#DE8F9E"/>
<path d="M27 29.25H31.5" stroke="#DE8F9E" stroke-width="2.75" stroke-linecap="round" stroke-linejoin="round"/>
<path d="M29.25 27V31.5" stroke="#DE8F9E" stroke-width="2.75" stroke-linecap="round" stroke-linejoin="round"/>
<path d="M43.875 27L42.75 31.5" stroke="#DE8F9E" stroke-width="2.75" stroke-linecap="round" stroke-linejoin="round"/>
<path d="M58.5 29.25H63" stroke="#DE8F9E" stroke-width="2.75" stroke-linecap="round" stroke-linejoin="round"/>
<path d="M60.75 27V31.5" stroke="#DE8F9E" stroke-width="2.75" stroke-linecap="round" stroke-linejoin="round"/>
<path d="M51.75 38.25L49.5 40.5" stroke="#DE8F9E" stroke-width="2.75" stroke-linecap="round" stroke-linejoin="round"/>
<path d="M58.5 47.25L63 46.125" stroke="#DE8F9E" stroke-width="2.75" stroke-linecap="round" stroke-linejoin="round"/>
<path d="M58.5 60.75H63" stroke="#DE8F9E" stroke-width="2.75" stroke-linecap="round" stroke-linejoin="round"/>
<path d="M60.75 58.5V63" stroke="#DE8F9E" stroke-width="2.75" stroke-linecap="round" stroke-linejoin="round"/>
<path d="M49.4998 55.1655L34.8343 40.5L24.9568 62.055C24.7657 62.4735 24.7071 62.9404 24.7888 63.3931C24.8705 63.8459 25.0886 64.2629 25.4139 64.5882C25.7392 64.9135 26.1562 65.1316 26.6089 65.2133C27.0617 65.295 27.5286 65.2363 27.9471 65.0453L49.4998 55.1677V55.1655Z" stroke="#DE8F9E" stroke-width="2.75" stroke-linecap="round" stroke-linejoin="round"/>
</svg>
