<svg width="44" height="44" viewBox="0 0 44 44" fill="none" xmlns="http://www.w3.org/2000/svg">
<path d="M22 16.5L22 22M22 27.5V27.5183" stroke="#E17158" stroke-width="2.75" stroke-linecap="round" stroke-linejoin="round"/>
<path d="M9.16661 34.833H34.8333C35.4315 34.8288 36.0196 34.6783 36.5463 34.3946C37.073 34.1109 37.5223 33.7026 37.855 33.2054C38.1877 32.7082 38.3936 32.1371 38.4549 31.542C38.5162 30.9469 38.431 30.3459 38.2066 29.7913L25.1899 7.33296C24.8729 6.75985 24.408 6.28214 23.8438 5.9495C23.2796 5.61685 22.6366 5.44141 21.9816 5.44141C21.3266 5.44141 20.6836 5.61685 20.1194 5.9495C19.5552 6.28214 19.0904 6.75985 18.7733 7.33296L5.75661 29.7913C5.5365 30.3332 5.44922 30.9199 5.50205 31.5024C5.55488 32.0848 5.74629 32.6463 6.0603 33.1397C6.37431 33.6331 6.80181 34.0443 7.30711 34.3389C7.8124 34.6334 8.38083 34.8028 8.96494 34.833" stroke="#E17158" stroke-width="2.75" stroke-linecap="round" stroke-linejoin="round"/>
</svg>
