<svg width="27" height="26" viewBox="0 0 27 26" fill="none" xmlns="http://www.w3.org/2000/svg">
<path d="M3.375 22.7493L5.23125 18.6326C3.81112 16.6914 3.1755 14.3177 3.44368 11.9572C3.71185 9.59674 4.86538 7.41161 6.6878 5.81194C8.51021 4.21227 10.8762 3.30803 13.3418 3.2689C15.8074 3.22978 18.2031 4.05847 20.0792 5.59945C21.9554 7.14043 23.183 9.28777 23.5318 11.6385C23.8806 13.9892 23.3266 16.3817 21.9736 18.367C20.6207 20.3522 18.5619 21.7938 16.1836 22.4212C13.8053 23.0485 11.271 22.8185 9.05625 21.7743L3.375 22.7493" stroke="white" stroke-width="2" stroke-linecap="round" stroke-linejoin="round"/>
<path d="M10.125 10.834C10.125 10.9776 10.1843 11.1154 10.2898 11.217C10.3952 11.3186 10.5383 11.3757 10.6875 11.3757C10.8367 11.3757 10.9798 11.3186 11.0852 11.217C11.1907 11.1154 11.25 10.9776 11.25 10.834V9.75065C11.25 9.60699 11.1907 9.46922 11.0852 9.36763C10.9798 9.26605 10.8367 9.20898 10.6875 9.20898C10.5383 9.20898 10.3952 9.26605 10.2898 9.36763C10.1843 9.46922 10.125 9.60699 10.125 9.75065V10.834ZM10.125 10.834C10.125 12.2706 10.7176 13.6483 11.7725 14.6641C12.8274 15.68 14.2582 16.2507 15.75 16.2507H16.875C17.0242 16.2507 17.1673 16.1936 17.2727 16.092C17.3782 15.9904 17.4375 15.8526 17.4375 15.709C17.4375 15.5653 17.3782 15.4276 17.2727 15.326C17.1673 15.2244 17.0242 15.1673 16.875 15.1673H15.75C15.6008 15.1673 15.4577 15.2244 15.3523 15.326C15.2468 15.4276 15.1875 15.5653 15.1875 15.709C15.1875 15.8526 15.2468 15.9904 15.3523 16.092C15.4577 16.1936 15.6008 16.2507 15.75 16.2507" stroke="white" stroke-width="2" stroke-linecap="round" stroke-linejoin="round"/>
</svg>
